<?xml version="1.0" encoding="UTF-8" standalone="no"?>
<svg
   xmlns="http://www.w3.org/2000/svg"
   viewBox="0 0 334.45474 126.18416"
   version="1.1"
   id="svg3344">
  <metadata
     id="metadata3350">
    <rdf:RDF>
      <cc:Work
         rdf:about="">
        <dc:format>image/svg+xml</dc:format>
        <dc:type
           rdf:resource="http://purl.org/dc/dcmitype/StillImage" />
        <dc:title></dc:title>
      </cc:Work>
    </rdf:RDF>
  </metadata>
  <defs
     id="defs3348" />
  <path
     id="path3354"
     d="m 36.799568,123.61541 c -7.49196,-2.92541 -13.573526,-8.61173 -17.302573,-16.1781 -2.314965,-4.69714 -2.792671,-7.732509 -2.762671,-17.554149 0.03176,-10.399286 0.451308,-12.670291 3.376047,-18.274674 3.733016,-7.153203 9.128587,-12.240891 16.587677,-15.64115 7.16946,-3.268225 22.76783,-3.135127 32.882293,0.280579 l 7.74271,2.614756 0,8.635244 c 0,10.273354 -0.59529,10.520294 -11.738653,4.869411 -12.57072,-6.374711 -24.07336,-4.291447 -29.00948,5.253956 -3.02889,5.857224 -2.86823,19.479808 0.29433,24.956647 5.41831,9.38328 18.20053,10.93191 30.930763,3.74741 3.7622,-2.12325 7.25734,-3.31992 8.12691,-2.7825 1.01316,0.62617 1.39898,3.63431 1.14844,8.95395 l -0.37731,8.01098 -7.5,2.73839 c -9.815543,3.58384 -23.758943,3.74275 -32.398483,0.36925 z m 120.139052,0.0528 c -8.66271,-3.38474 -13.54612,-7.56333 -17.7606,-15.19723 -3.34453,-6.05816 -3.7035,-7.80993 -3.68071,-17.962808 0.0389,-17.314604 5.70969,-27.448825 18.99743,-33.949908 5.65566,-2.767058 8.80891,-3.456649 15.88012,-3.472855 10.58288,-0.02425 16.88273,1.969163 22.88889,7.242587 5.9529,5.226647 8.7151,11.899389 9.77659,23.617676 l 0.87754,9.6875 -25.88165,0 -25.88165,0 0.81225,2.812499 c 1.13217,3.920259 4.51515,8.444729 8.58762,11.485259 5.38935,4.02373 19.11984,3.60489 28.73215,-0.87646 10.61626,-4.9494 10.78645,-4.86819 10.78645,5.14661 l 0,8.56791 -9.0625,2.68605 c -11.64751,3.45223 -26.55021,3.5428 -35.07193,0.21317 z m 27.88443,-46.341868 c 0,-6.669951 -11.02228,-11.530656 -20.02846,-8.832337 -4.41521,1.322828 -11.22154,7.530818 -11.22154,10.235062 0,0.643906 6.9073,1.154094 15.625,1.154094 14.90741,0 15.625,-0.117424 15.625,-2.556819 z m 33.75,46.006438 -8.125,-2.82462 -0.37696,-7.99804 c -0.20733,-4.39892 0.14516,-8.52016 0.78332,-9.15832 0.71371,-0.71371 4.2265,0.39043 9.12696,2.86878 14.46409,7.31508 31.09168,6.30202 31.09168,-1.8943 0,-3.40808 -2.33066,-4.417989 -17.22351,-7.463219 -12.34755,-2.524769 -18.38508,-6.115602 -21.66112,-12.882994 -5.46227,-11.283547 0.8765,-24.1513 14.05308,-28.527855 8.21926,-2.730002 23.3804,-2.577073 32.33155,0.326125 l 6.875,2.229824 0.36961,8.4375 c 0.4299,9.813809 -0.28211,10.230295 -9.66246,5.651977 -3.77623,-1.843088 -8.72929,-2.944382 -14.63959,-3.255057 -7.77894,-0.4089 -9.27209,-0.129896 -11.5625,2.160523 -1.44654,1.446531 -2.63006,3.179589 -2.63006,3.851241 0,2.453542 6.00387,5.040192 16.93646,7.296745 19.06534,3.935202 24.3001,8.566038 24.30886,21.5044 0.006,8.849 -3.8221,14.81222 -12.13706,18.90651 -8.79655,4.33142 -26.5749,4.69339 -37.85826,0.77078 z m 72.48091,-0.0617 c -9.109,-4.81697 -10.53442,-9.10203 -11.00253,-33.075419 l -0.39663,-20.3125 -3.66587,0 c -3.64718,0 -3.66588,-0.03825 -3.66588,-7.5 0,-7.5 0,-7.5 3.75,-7.5 3.70051,0 3.75,-0.08848 3.75,-6.70374 l 0,-6.70374 -12.1875,-0.88273 C 249.82755,39.303133 232.849,36.785325 199.82305,30.536797 145.90314,20.33512 126.92769,18.47323 102.94805,21.03133 46.712248,27.030442 14.707196,50.869681 2.1210973,96.133161 -0.83699172,106.77136 -0.64642072,95.581141 2.3514343,82.607857 9.0579953,53.585065 33.035248,22.689158 57.948048,10.9688 89.975581,-4.0987204 144.00361,-3.6220604 205.44805,12.27012 c 10.3125,2.66726 31.125,8.04246 46.25,11.944892 28.20618,7.277535 54.5334,12.26792 72.88437,13.815395 5.7114,0.481624 10.14793,1.112117 9.85896,1.401093 -0.28898,0.288977 -8.61819,0.930694 -18.50937,1.426037 l -17.98396,0.900624 -0.37782,6.5625 -0.37783,6.5625 11.94033,0 11.94032,0 0,7.5 0,7.5 -11.96506,0 -11.96505,0 0.40255,18.691019 c 0.2762,12.82414 0.89354,19.18088 1.96671,20.25165 1.79503,1.79098 8.54041,2.00466 16.24835,0.51472 l 5.3125,-1.02691 0,7.60101 0,7.601 -4.6875,1.30178 c -8.29924,2.30482 -19.32125,1.63198 -25.33159,-1.54636 z M 86.073051,89.883161 l 0,-35 8.75,0 c 8.447199,0 8.749999,0.10575 8.749999,3.055845 l 0,3.055846 6.80317,-3.114596 c 5.5446,-2.5384 8.37738,-3.045914 15.3125,-2.743345 l 8.50933,0.37125 0.37147,8.519 0.37147,8.519001 -8.68337,-0.855637 c -7.71941,-0.760652 -9.46052,-0.499845 -15.68397,2.349345 l -7.0006,3.204982 0,23.819158 0,23.81915 -8.749999,0 -8.75,0 0,-34.999999 z"
     style="fill:#040404" />
</svg>
